<?xml version="1.0" encoding="iso-8859-1"?>
<!-- Generator: Adobe Illustrator 19.0.0, SVG Export Plug-In . SVG Version: 6.00 Build 0)  -->
<svg version="1.1" id="Capa_1" xmlns="http://www.w3.org/2000/svg" xmlns:xlink="http://www.w3.org/1999/xlink" x="0px" y="0px"
	 viewBox="0 0 511.998 511.998" style="enable-background:new 0 0 511.998 511.998;" xml:space="preserve">
<g>
	<path style="fill:#FF901D;" d="M191.039,333.947c-1.001,0-1.998-0.058-2.987-0.176c-8.962-1.07-16.093-6.596-20.08-15.558
		c-1.706-3.836,0.021-8.329,3.857-10.034c3.834-1.704,8.328,0.021,10.035,3.856c1.772,3.985,4.46,6.22,7.991,6.64
		c4.147,0.492,9.063-1.606,11.676-5c2.397-3.112,3.263-7.481,2.261-11.401c-0.64-2.503-2.331-5.896-6.753-7.839
		c-13.172-5.791-28.175-0.242-45.548,6.179c-31.465,11.634-70.627,26.113-114.165-25.654l-18.031-21.439
		c-3.632-4.317-5.36-9.791-4.868-15.412c0.492-5.62,3.147-10.709,7.473-14.329c11.735-9.82,27.551-13.266,42.307-9.215l8.852,2.43
		c4.708,1.291,9.75,0.188,13.487-2.956l24.017-20.201c3.213-2.7,8.008-2.288,10.71,0.925c2.702,3.213,2.288,8.007-0.924,10.71
		l-24.018,20.201c-7.563,6.36-17.767,8.593-27.297,5.98l-8.851-2.43c-9.949-2.731-20.613-0.408-28.527,6.214
		c-1.207,1.01-1.947,2.429-2.084,3.997c-0.138,1.568,0.344,3.095,1.357,4.3l18.031,21.439c36.657,43.584,66.093,32.701,97.258,21.18
		c18.751-6.933,38.14-14.102,56.938-5.839c7.821,3.438,13.278,9.828,15.364,17.993c2.165,8.472,0.317,17.608-4.945,24.442
		C208.341,329.749,199.574,333.947,191.039,333.947z"/>
	<path style="fill:#FF901D;" d="M333.481,213.91c-3.993,0.001-8.002-0.824-11.723-2.484c-7.697-3.434-13.076-9.889-15.146-18.177
		c-4.977-19.92,5.357-37.825,15.351-55.139c16.61-28.776,32.298-55.958-4.485-99.436l-18.094-21.387
		c-1.017-1.201-2.44-1.933-4.009-2.062c-1.567-0.134-3.093,0.361-4.291,1.381c-7.86,6.683-11.947,16.804-10.932,27.072l0.903,9.134
		c0.971,9.834-2.952,19.516-10.496,25.898L246.6,98.98c-3.205,2.714-8.001,2.312-10.713-0.894
		c-2.712-3.205-2.312-8.001,0.893-10.712l23.959-20.27c3.728-3.153,5.666-7.937,5.186-12.797l-0.903-9.134
		c-1.505-15.228,4.556-30.236,16.213-40.149c4.298-3.654,9.763-5.415,15.384-4.951c5.623,0.462,10.726,3.088,14.37,7.395
		l18.094,21.388c43.688,51.639,22.816,87.799,6.046,116.855c-9.259,16.041-17.255,29.896-13.768,43.855
		c1.17,4.686,4.23,6.925,6.59,7.977c3.696,1.649,8.148,1.531,11.62-0.307c3.785-2.003,6.685-6.489,6.896-10.666
		c0.179-3.55-1.57-6.577-5.199-8.996c-3.493-2.329-4.438-7.048-2.11-10.541s7.048-4.437,10.541-2.11
		c8.163,5.44,12.407,13.401,11.952,22.415c-0.479,9.471-6.493,18.85-14.967,23.335C342.613,212.826,338.057,213.91,333.481,213.91z"
		/>
</g>
<path style="fill:#FED9A8;" d="M345.309,460.639l-47.817,3.436l-44.971,46.172c-1.09,1.119-2.587,1.751-4.15,1.751H88.077
	c-5.532,0-7.916-7.013-3.531-10.385L231.33,388.75l47.195-78.665c7.911-13.186,26.202-15.221,36.818-4.097l88.557,67.843
	c13.385,10.254,14.214,30.128,1.73,41.462l-37.222,33.79C361.924,455.049,353.902,459.061,345.309,460.639z"/>
<path style="fill:#F4C28C;" d="M403.9,373.832l-21.651-16.587c2.328,9.273-0.287,19.597-8.036,26.632l-37.222,33.79
	c-6.484,5.965-14.506,9.977-23.1,11.555l-47.817,3.436l-77.277,79.34h59.573c1.563,0,3.059-0.631,4.15-1.751l44.972-46.172
	l47.817-3.436c8.594-1.578,16.615-5.59,23.1-11.555l37.222-33.79C418.115,403.96,417.286,384.086,403.9,373.832z"/>
<path style="fill:#E8D06B;" d="M336.501,335.224l8.936,9.612c-5.031,0.537-10.186-1.171-13.834-5.095l-8.131-8.746
	C328.146,330.135,333.087,331.552,336.501,335.224z"/>
<polygon style="fill:#F7BC14;" points="451.619,417.485 394.845,465.234 245.168,260.519 274.633,235.737 "/>
<path style="fill:#FED130;" d="M65.003,176.751l48.915,58.159c34.687,41.243,89.334,61.509,147.215,54.594l34.32-4.1l9.922-33.11
	c16.733-55.84,6.134-113.151-28.554-154.394l-48.915-58.159L65.003,176.751z"/>
<path style="fill:#F7BC14;" d="M276.821,97.901l-48.915-58.159l-34.944,29.39l51.574,61.054
	c34.687,41.243,45.287,98.554,28.554,154.394l-1.087,3.626l23.45-2.801l9.922-33.11C322.107,196.456,311.508,139.145,276.821,97.901
	z"/>
<path style="fill:#FFB125;" d="M243.304,45.899L68.429,192.977c-2.547,2.142-6.349,1.814-8.491-0.733l-11.066-13.158
	c-2.142-2.547-1.814-6.349,0.733-8.491L224.48,23.517c2.547-2.142,6.349-1.814,8.491,0.733l11.066,13.158
	C246.18,39.955,245.852,43.756,243.304,45.899z"/>
<path style="fill:#FF901D;" d="M244.037,37.408L232.971,24.25c-2.142-2.547-5.944-2.875-8.491-0.733L193.586,49.5l18.824,22.382
	l30.894-25.983C245.852,43.756,246.18,39.955,244.037,37.408z"/>
<path style="fill:#FFFFFF;" d="M189.094,157.089l31.298,13.717c0.401,0.176,0.864,0.143,1.236-0.088l29.043-18.006
	c0.938-0.581,2.135,0.165,2.026,1.263l-3.374,34.005c-0.043,0.436,0.131,0.866,0.465,1.148l26.099,22.057
	c0.843,0.712,0.503,2.082-0.575,2.318l-33.383,7.299c-0.428,0.094-0.783,0.392-0.948,0.798l-12.913,31.638
	c-0.417,1.022-1.825,1.122-2.382,0.169l-17.258-29.494c-0.221-0.378-0.615-0.623-1.052-0.655l-34.08-2.504
	c-1.101-0.081-1.631-1.389-0.897-2.213l22.717-25.527c0.291-0.327,0.403-0.777,0.298-1.203l-8.15-33.186
	C187.003,157.555,188.083,156.646,189.094,157.089z"/>
<path style="fill:#FFB125;" d="M494.125,413.381l-106.643,89.692c-4.629,3.894-11.638,2.762-14.806-2.391l-17.626-28.667
	c-2.569-4.177-1.692-9.606,2.061-12.762l99.047-83.303c3.753-3.156,9.251-3.09,12.927,0.157l25.222,22.279
	C498.841,402.389,498.755,409.487,494.125,413.381z"/>
<path style="fill:#FF901D;" d="M494.307,398.384l-25.222-22.279c-3.675-3.246-9.174-3.313-12.927-0.157l-28.899,24.306
	l40.226,35.532l26.64-22.405C498.755,409.487,498.841,402.389,494.307,398.384z"/>
<path style="fill:#F4C28C;" d="M386.244,413.718L386.244,413.718c7.223,7.781,19.387,8.231,27.165,1.005l24.058-22.35
	c7.774-7.222,8.224-19.378,1.004-27.155l0,0c-7.223-7.781-19.387-8.231-27.165-1.005l-24.058,22.35
	C379.474,393.785,379.024,405.941,386.244,413.718z"/>
<path style="fill:#FED9A8;" d="M387.248,386.562l24.058-22.35c7.778-7.226,19.942-6.776,27.165,1.005l0,0
	c4.188,4.512,5.79,10.497,4.883,16.138c-7.318-6.236-18.308-6.143-25.525,0.561l-24.058,22.35
	c-3.264,3.032-5.231,6.935-5.888,11.017c-0.569-0.485-1.119-1.004-1.64-1.565l0,0C379.024,405.941,379.474,393.785,387.248,386.562z
	"/>
<path style="fill:#F4C28C;" d="M366.97,379.037L366.97,379.037c7.332,7.898,19.68,8.355,27.575,1.02l23.633-21.955
	c7.891-7.331,8.348-19.671,1.019-27.565l0,0c-7.332-7.898-19.68-8.355-27.575-1.02l-23.633,21.955
	C360.098,358.803,359.641,371.142,366.97,379.037z"/>
<path style="fill:#FED9A8;" d="M367.989,351.471l23.633-21.955c7.896-7.335,20.243-6.878,27.575,1.02l0,0
	c4.2,4.525,5.838,10.509,4.99,16.175c-7.428-6.465-18.69-6.415-26.067,0.438l-23.633,21.955c-3.368,3.129-5.377,7.172-6.009,11.391
	c-0.522-0.454-1.027-0.939-1.508-1.458l0,0C359.641,371.142,360.098,358.803,367.989,351.471z"/>
<path style="fill:#F4C28C;" d="M340.293,350.692L340.293,350.692c7.332,7.898,19.68,8.355,27.575,1.02l23.633-21.955
	c7.891-7.331,8.348-19.671,1.019-27.565l0,0c-7.332-7.898-19.68-8.355-27.575-1.02l-23.633,21.955
	C333.421,330.459,332.965,342.798,340.293,350.692z"/>
<path style="fill:#FED9A8;" d="M341.313,323.127l23.633-21.955c7.896-7.335,20.243-6.878,27.575,1.02l0,0
	c0.506,0.545,0.971,1.113,1.403,1.697c-4.288,0.301-8.505,2.01-11.9,5.164l-23.633,21.955c-7.347,6.825-8.246,17.99-2.422,25.868
	c-5.686,0.399-11.495-1.681-15.675-6.184l0,0C332.965,342.798,333.421,330.459,341.313,323.127z"/>
<path style="fill:#F4C28C;" d="M314.602,321.286L314.602,321.286c7.332,7.898,19.68,8.355,27.575,1.02l23.633-21.955
	c7.891-7.331,8.348-19.671,1.019-27.565l0,0c-7.332-7.898-19.68-8.355-27.575-1.02l-23.633,21.955
	C307.73,301.052,307.274,313.392,314.602,321.286z"/>
<g>
	<path style="fill:#FED9A8;" d="M315.621,293.721l23.633-21.955c7.896-7.335,20.243-6.878,27.575,1.02l0,0
		c4.196,4.52,5.835,10.497,4.993,16.157c-7.428-6.477-18.699-6.431-26.081,0.427l-23.633,21.955
		c-3.373,3.134-5.383,7.183-6.012,11.408c-0.517-0.451-1.017-0.932-1.494-1.446l0,0C307.274,313.392,307.73,301.052,315.621,293.721
		z"/>
	<path style="fill:#FED9A8;" d="M359.758,336.216l-4.383,4.072c-6.895,6.406-17.536,6.161-23.772-0.546l-11.034-11.869
		c-5.401-5.81-14.628-5.991-20.564-0.404l0,0c3.322,51.398-68.674,61.283-68.674,61.283l30.601-75.27
		c1.887-5.615,5.152-10.702,9.492-14.787l21.733-20.454c10.566-9.944,26.988-9.628,36.61,0.707l31.178,33.488
		C367.196,319.147,366.664,329.8,359.758,336.216z"/>
</g>
<g>
</g>
<g>
</g>
<g>
</g>
<g>
</g>
<g>
</g>
<g>
</g>
<g>
</g>
<g>
</g>
<g>
</g>
<g>
</g>
<g>
</g>
<g>
</g>
<g>
</g>
<g>
</g>
<g>
</g>
</svg>
